<svg width="50" height="50" viewBox="0 0 50 50" fill="none" xmlns="http://www.w3.org/2000/svg">
<g clip-path="url(#clip0_61_1219)">
<path d="M49.9015 9.52034C48.0301 10.343 46.048 10.8863 44.0187 11.1328C46.1578 9.84893 47.7593 7.83337 48.5265 5.4594C46.5032 6.63284 44.301 7.46631 42.0078 7.92659C40.4656 6.27887 38.4228 5.18616 36.1962 4.81799C33.9697 4.44983 31.6838 4.82679 29.6934 5.89039C27.7029 6.954 26.1192 8.64478 25.1878 10.7004C24.2564 12.7561 24.0294 15.0616 24.5421 17.2594C16.0218 16.861 8.4687 12.7672 3.41714 6.58284C2.49757 8.14672 2.01663 9.92959 2.02495 11.7438C2.0237 13.4303 2.43893 15.091 3.23376 16.5785C4.0286 18.0659 5.17845 19.3341 6.5812 20.2703C4.95561 20.2212 3.36543 19.7835 1.9437 18.9938V19.1172C1.9432 21.4844 2.76122 23.779 4.2591 25.6121C5.75698 27.4451 7.84259 28.7039 10.1625 29.175C9.28369 29.4098 8.37828 29.5301 7.4687 29.5328C6.81089 29.5328 6.18276 29.4688 5.5562 29.3532C6.2164 31.3902 7.49527 33.1708 9.21481 34.447C10.9343 35.7232 13.009 36.4316 15.15 36.4735C11.5225 39.3143 7.04649 40.8554 2.43901 40.85C1.62293 40.8533 0.807391 40.8073 -0.00317383 40.7125C4.69697 43.7242 10.163 45.323 15.7453 45.3188C34.5999 45.3188 44.9031 29.7016 44.9031 16.1766C44.9031 15.7453 44.9031 15.3063 44.8703 14.8657C46.8857 13.4212 48.6226 11.6234 49.9968 9.5594L49.9015 9.52034Z" fill="white"/>
</g>
<defs>
<clipPath id="clip0_61_1219">
<rect width="50" height="50" fill="white"/>
</clipPath>
</defs>
</svg>
